<mxfile host="app.diagrams.net" modified="2021-11-25T10:32:29.980Z" agent="5.0 (X11; Linux x86_64) AppleWebKit/537.36 (KHTML, like Gecko) Chrome/93.0.4577.63 Safari/537.36" etag="2QHmx35KuEnHid3-S74a" version="15.8.6" type="github">
  <diagram id="9OSxLTJgpFY7RDkmBLER" name="Page-1">
    <mxGraphModel dx="2067" dy="699" grid="1" gridSize="10" guides="1" tooltips="1" connect="1" arrows="1" fold="1" page="1" pageScale="1" pageWidth="827" pageHeight="1169" math="0" shadow="0">
      <root>
        <mxCell id="0" />
        <mxCell id="1" parent="0" />
        <mxCell id="TVDfhTlIE3bJfRU-HiFT-46" value="" style="rounded=0;whiteSpace=wrap;html=1;fontSize=10;strokeColor=default;strokeWidth=2;" vertex="1" parent="1">
          <mxGeometry x="-30" y="50" width="1140" height="470" as="geometry" />
        </mxCell>
        <mxCell id="TVDfhTlIE3bJfRU-HiFT-5" style="edgeStyle=orthogonalEdgeStyle;rounded=0;orthogonalLoop=1;jettySize=auto;html=1;entryX=0;entryY=0.5;entryDx=0;entryDy=0;strokeWidth=2;" edge="1" parent="1" source="TVDfhTlIE3bJfRU-HiFT-1" target="TVDfhTlIE3bJfRU-HiFT-2">
          <mxGeometry relative="1" as="geometry" />
        </mxCell>
        <mxCell id="TVDfhTlIE3bJfRU-HiFT-1" value="" style="rounded=1;whiteSpace=wrap;html=1;strokeWidth=2;" vertex="1" parent="1">
          <mxGeometry x="60" y="260" width="190" height="70" as="geometry" />
        </mxCell>
        <mxCell id="TVDfhTlIE3bJfRU-HiFT-6" style="edgeStyle=orthogonalEdgeStyle;rounded=0;orthogonalLoop=1;jettySize=auto;html=1;entryX=0;entryY=0.5;entryDx=0;entryDy=0;strokeWidth=2;" edge="1" parent="1" source="TVDfhTlIE3bJfRU-HiFT-2" target="TVDfhTlIE3bJfRU-HiFT-3">
          <mxGeometry relative="1" as="geometry" />
        </mxCell>
        <mxCell id="TVDfhTlIE3bJfRU-HiFT-15" value="" style="edgeStyle=orthogonalEdgeStyle;rounded=0;orthogonalLoop=1;jettySize=auto;html=1;fontSize=14;curved=1;entryX=0.616;entryY=0;entryDx=0;entryDy=0;entryPerimeter=0;strokeWidth=2;" edge="1" parent="1" source="TVDfhTlIE3bJfRU-HiFT-2" target="TVDfhTlIE3bJfRU-HiFT-1">
          <mxGeometry relative="1" as="geometry">
            <Array as="points">
              <mxPoint x="412" y="220" />
              <mxPoint x="177" y="220" />
            </Array>
          </mxGeometry>
        </mxCell>
        <mxCell id="TVDfhTlIE3bJfRU-HiFT-2" value="" style="rounded=1;whiteSpace=wrap;html=1;strokeWidth=2;" vertex="1" parent="1">
          <mxGeometry x="333.5" y="260" width="156.5" height="70" as="geometry" />
        </mxCell>
        <mxCell id="TVDfhTlIE3bJfRU-HiFT-7" style="edgeStyle=orthogonalEdgeStyle;rounded=0;orthogonalLoop=1;jettySize=auto;html=1;entryX=0;entryY=0.5;entryDx=0;entryDy=0;strokeWidth=2;" edge="1" parent="1" source="TVDfhTlIE3bJfRU-HiFT-3" target="TVDfhTlIE3bJfRU-HiFT-4">
          <mxGeometry relative="1" as="geometry" />
        </mxCell>
        <mxCell id="TVDfhTlIE3bJfRU-HiFT-16" style="edgeStyle=orthogonalEdgeStyle;curved=1;rounded=0;orthogonalLoop=1;jettySize=auto;html=1;entryX=0.75;entryY=0;entryDx=0;entryDy=0;fontSize=14;exitX=0.5;exitY=0;exitDx=0;exitDy=0;strokeWidth=2;" edge="1" parent="1" source="TVDfhTlIE3bJfRU-HiFT-3" target="TVDfhTlIE3bJfRU-HiFT-2">
          <mxGeometry relative="1" as="geometry">
            <Array as="points">
              <mxPoint x="670" y="220" />
              <mxPoint x="451" y="220" />
            </Array>
          </mxGeometry>
        </mxCell>
        <mxCell id="TVDfhTlIE3bJfRU-HiFT-18" style="edgeStyle=orthogonalEdgeStyle;curved=1;rounded=0;orthogonalLoop=1;jettySize=auto;html=1;entryX=0.542;entryY=1;entryDx=0;entryDy=0;entryPerimeter=0;fontSize=14;exitX=0.5;exitY=1;exitDx=0;exitDy=0;strokeWidth=2;" edge="1" parent="1" source="TVDfhTlIE3bJfRU-HiFT-3" target="TVDfhTlIE3bJfRU-HiFT-1">
          <mxGeometry relative="1" as="geometry">
            <Array as="points">
              <mxPoint x="670" y="380" />
              <mxPoint x="163" y="380" />
            </Array>
          </mxGeometry>
        </mxCell>
        <mxCell id="TVDfhTlIE3bJfRU-HiFT-3" value="" style="rounded=1;whiteSpace=wrap;html=1;strokeWidth=2;" vertex="1" parent="1">
          <mxGeometry x="560" y="260" width="220" height="70" as="geometry" />
        </mxCell>
        <mxCell id="TVDfhTlIE3bJfRU-HiFT-17" style="edgeStyle=orthogonalEdgeStyle;curved=1;rounded=0;orthogonalLoop=1;jettySize=auto;html=1;entryX=0.614;entryY=0.014;entryDx=0;entryDy=0;entryPerimeter=0;fontSize=14;exitX=0.5;exitY=0;exitDx=0;exitDy=0;strokeWidth=2;" edge="1" parent="1" source="TVDfhTlIE3bJfRU-HiFT-4" target="TVDfhTlIE3bJfRU-HiFT-3">
          <mxGeometry relative="1" as="geometry">
            <Array as="points">
              <mxPoint x="930" y="220" />
              <mxPoint x="695" y="220" />
            </Array>
          </mxGeometry>
        </mxCell>
        <mxCell id="TVDfhTlIE3bJfRU-HiFT-20" style="edgeStyle=orthogonalEdgeStyle;curved=1;rounded=0;orthogonalLoop=1;jettySize=auto;html=1;exitX=0.75;exitY=1;exitDx=0;exitDy=0;entryX=0.316;entryY=1;entryDx=0;entryDy=0;entryPerimeter=0;fontSize=14;strokeWidth=2;" edge="1" parent="1" source="TVDfhTlIE3bJfRU-HiFT-4" target="TVDfhTlIE3bJfRU-HiFT-1">
          <mxGeometry relative="1" as="geometry">
            <Array as="points">
              <mxPoint x="970" y="440" />
              <mxPoint x="120" y="440" />
            </Array>
          </mxGeometry>
        </mxCell>
        <mxCell id="TVDfhTlIE3bJfRU-HiFT-4" value="" style="rounded=1;whiteSpace=wrap;html=1;strokeWidth=2;" vertex="1" parent="1">
          <mxGeometry x="850" y="260" width="160" height="70" as="geometry" />
        </mxCell>
        <mxCell id="TVDfhTlIE3bJfRU-HiFT-8" value="&lt;b&gt;&lt;font style=&quot;font-size: 14px&quot;&gt;Cycle de vie d&#39;un projet de ML&lt;/font&gt;&lt;/b&gt;" style="text;whiteSpace=wrap;html=1;strokeColor=default;align=center;strokeWidth=2;" vertex="1" parent="1">
          <mxGeometry x="390" y="130" width="260" height="30" as="geometry" />
        </mxCell>
        <mxCell id="TVDfhTlIE3bJfRU-HiFT-9" value="planification et gestion de projet" style="text;whiteSpace=wrap;html=1;fontSize=14;align=center;strokeWidth=2;" vertex="1" parent="1">
          <mxGeometry x="90" y="270" width="130" height="30" as="geometry" />
        </mxCell>
        <mxCell id="TVDfhTlIE3bJfRU-HiFT-10" value="Collecte de données et étiquetage" style="text;whiteSpace=wrap;html=1;fontSize=14;align=center;strokeWidth=2;" vertex="1" parent="1">
          <mxGeometry x="350" y="280" width="140" height="30" as="geometry" />
        </mxCell>
        <mxCell id="TVDfhTlIE3bJfRU-HiFT-11" value="apprentissage et débogage" style="text;whiteSpace=wrap;html=1;fontSize=14;strokeWidth=2;" vertex="1" parent="1">
          <mxGeometry x="580" y="280" width="200" height="30" as="geometry" />
        </mxCell>
        <mxCell id="TVDfhTlIE3bJfRU-HiFT-13" value="Déploiement et test" style="text;whiteSpace=wrap;html=1;fontSize=14;align=center;strokeWidth=2;" vertex="1" parent="1">
          <mxGeometry x="855" y="280" width="150" height="30" as="geometry" />
        </mxCell>
        <mxCell id="TVDfhTlIE3bJfRU-HiFT-19" style="edgeStyle=orthogonalEdgeStyle;curved=1;rounded=0;orthogonalLoop=1;jettySize=auto;html=1;entryX=0.546;entryY=0.986;entryDx=0;entryDy=0;entryPerimeter=0;fontSize=14;exitX=0.606;exitY=1.029;exitDx=0;exitDy=0;exitPerimeter=0;strokeWidth=2;" edge="1" parent="1" source="TVDfhTlIE3bJfRU-HiFT-4" target="TVDfhTlIE3bJfRU-HiFT-2">
          <mxGeometry relative="1" as="geometry">
            <mxPoint x="933.51" y="340" as="sourcePoint" />
            <mxPoint x="426.49" y="340" as="targetPoint" />
            <Array as="points">
              <mxPoint x="947" y="390" />
              <mxPoint x="419" y="390" />
            </Array>
          </mxGeometry>
        </mxCell>
        <mxCell id="TVDfhTlIE3bJfRU-HiFT-32" value="2" style="text;strokeColor=none;fillColor=none;align=left;verticalAlign=middle;spacingLeft=4;spacingRight=4;overflow=hidden;points=[[0,0.5],[1,0.5]];portConstraint=eastwest;rotatable=0;fontSize=10;strokeWidth=2;" vertex="1" parent="1">
          <mxGeometry x="250" y="200" width="10" height="10" as="geometry" />
        </mxCell>
        <mxCell id="TVDfhTlIE3bJfRU-HiFT-38" value="4" style="text;strokeColor=none;fillColor=none;align=left;verticalAlign=middle;spacingLeft=4;spacingRight=4;overflow=hidden;points=[[0,0.5],[1,0.5]];portConstraint=eastwest;rotatable=0;fontSize=10;strokeWidth=2;" vertex="1" parent="1">
          <mxGeometry x="500" y="200" width="10" height="10" as="geometry" />
        </mxCell>
        <mxCell id="TVDfhTlIE3bJfRU-HiFT-39" value="1" style="text;strokeColor=none;fillColor=none;align=left;verticalAlign=middle;spacingLeft=4;spacingRight=4;overflow=hidden;points=[[0,0.5],[1,0.5]];portConstraint=eastwest;rotatable=0;fontSize=10;strokeWidth=2;" vertex="1" parent="1">
          <mxGeometry x="260" y="280" width="10" height="10" as="geometry" />
        </mxCell>
        <mxCell id="TVDfhTlIE3bJfRU-HiFT-40" value="5" style="text;strokeColor=none;fillColor=none;align=left;verticalAlign=middle;spacingLeft=4;spacingRight=4;overflow=hidden;points=[[0,0.5],[1,0.5]];portConstraint=eastwest;rotatable=0;fontSize=10;strokeWidth=2;" vertex="1" parent="1">
          <mxGeometry x="390" y="360" width="10" height="10" as="geometry" />
        </mxCell>
        <mxCell id="TVDfhTlIE3bJfRU-HiFT-41" value="3" style="text;strokeColor=none;fillColor=none;align=left;verticalAlign=middle;spacingLeft=4;spacingRight=4;overflow=hidden;points=[[0,0.5],[1,0.5]];portConstraint=eastwest;rotatable=0;fontSize=10;strokeWidth=2;" vertex="1" parent="1">
          <mxGeometry x="510" y="280" width="10" height="10" as="geometry" />
        </mxCell>
        <mxCell id="TVDfhTlIE3bJfRU-HiFT-42" value="7" style="text;strokeColor=none;fillColor=none;align=left;verticalAlign=middle;spacingLeft=4;spacingRight=4;overflow=hidden;points=[[0,0.5],[1,0.5]];portConstraint=eastwest;rotatable=0;fontSize=10;strokeWidth=2;" vertex="1" parent="1">
          <mxGeometry x="770" y="200" width="10" height="10" as="geometry" />
        </mxCell>
        <mxCell id="TVDfhTlIE3bJfRU-HiFT-43" value="6" style="text;strokeColor=none;fillColor=none;align=left;verticalAlign=middle;spacingLeft=4;spacingRight=4;overflow=hidden;points=[[0,0.5],[1,0.5]];portConstraint=eastwest;rotatable=0;fontSize=10;strokeWidth=2;" vertex="1" parent="1">
          <mxGeometry x="790" y="280" width="10" height="10" as="geometry" />
        </mxCell>
        <mxCell id="TVDfhTlIE3bJfRU-HiFT-44" value="8" style="text;strokeColor=none;fillColor=none;align=left;verticalAlign=middle;spacingLeft=4;spacingRight=4;overflow=hidden;points=[[0,0.5],[1,0.5]];portConstraint=eastwest;rotatable=0;fontSize=10;strokeWidth=2;" vertex="1" parent="1">
          <mxGeometry x="675" y="400" width="10" height="10" as="geometry" />
        </mxCell>
        <mxCell id="TVDfhTlIE3bJfRU-HiFT-45" value="9" style="text;strokeColor=none;fillColor=none;align=left;verticalAlign=middle;spacingLeft=4;spacingRight=4;overflow=hidden;points=[[0,0.5],[1,0.5]];portConstraint=eastwest;rotatable=0;fontSize=10;strokeWidth=2;" vertex="1" parent="1">
          <mxGeometry x="500" y="450" width="10" height="10" as="geometry" />
        </mxCell>
      </root>
    </mxGraphModel>
  </diagram>
</mxfile>
